# xmcd CD database file
#
# Track frame offsets:
#	150
#	37358
#	71818
#	95863
#	110355
#	136907
#	175379
#	207629
#	223593
#	243126
#	277378
#	310016
#
# Disc length: 4339 seconds
#
# Revision: 0
# Processed by: cddbd v1.5.2PL0 Copyright (c) Steve Scherf et al.
# Submitted via: CDex 1.51
#
DISCID=c510f10c
DTITLE=Nicita C., Di Rosa R., Falzone G. - Nicita C., Di Rosa R. - Voices
DYEAR=2004
DGENRE=Jazz
TTITLE0=Viene sera
TTITLE1=Lua
TTITLE2=And She Walked In
TTITLE3=Voices, part I
TTITLE4=G. On My Mind
TTITLE5=Senza parole
TTITLE6=Promise
TTITLE7=Nica
TTITLE8=Voices, part II
TTITLE9=Il buon senso
TTITLE10=Waiting For The Sound
TTITLE11=Song For Ale
EXTD=YEAR: 2004
EXTT0=
EXTT1=
EXTT2=
EXTT3=
EXTT4=
EXTT5=
EXTT6=
EXTT7=
EXTT8=
EXTT9=
EXTT10=
EXTT11=
PLAYORDER=
